<svg width="28" height="25" viewBox="0 0 28 25" fill="none" xmlns="http://www.w3.org/2000/svg">
<g clip-path="url(#clip0_3_222)">
<path d="M14.489 10.7917L21.7778 13.3715V23.8958C21.7778 24.1003 21.6958 24.2963 21.55 24.4409C21.4041 24.5854 21.2063 24.6667 21 24.6667H17.8889C17.6826 24.6667 17.4848 24.5854 17.3389 24.4409C17.193 24.2963 17.1111 24.1003 17.1111 23.8958V18.5H9.33332V23.8958C9.33332 24.1003 9.25137 24.2963 9.10551 24.4409C8.95965 24.5854 8.76182 24.6667 8.55554 24.6667H5.44443C5.23815 24.6667 5.04032 24.5854 4.89446 24.4409C4.7486 24.2963 4.66665 24.1003 4.66665 23.8958V13.5903C2.86026 12.9519 1.55554 11.257 1.55554 9.24999C1.55554 8.84112 1.71943 8.44899 2.01115 8.15987C2.30288 7.87075 2.69854 7.70833 3.1111 7.70833C3.52366 7.70833 3.91932 7.87075 4.21104 8.15987C4.50276 8.44899 4.66665 8.84112 4.66665 9.24999C4.66742 9.65863 4.83156 10.0503 5.12312 10.3393C5.41467 10.6282 5.80989 10.7909 6.22221 10.7917H14.489ZM26.4444 5.39583V6.93749C26.4444 7.75524 26.1167 8.5395 25.5332 9.11774C24.9498 9.69598 24.1584 10.0208 23.3333 10.0208H21.7778V11.735L15.5555 9.53279V2.31249C15.5555 1.62597 16.3926 1.28199 16.8831 1.76761L18.2092 3.08333H20.8162C21.3466 3.08333 21.9707 3.46489 22.2075 3.93558L22.5555 4.62499H25.6667C25.8729 4.62499 26.0708 4.70621 26.2166 4.85077C26.3625 4.99532 26.4444 5.19139 26.4444 5.39583ZM21 5.39583C21 5.24337 20.9544 5.09434 20.8689 4.96757C20.7834 4.84081 20.662 4.74201 20.5198 4.68367C20.3777 4.62533 20.2213 4.61006 20.0705 4.6398C19.9196 4.66955 19.781 4.74296 19.6722 4.85077C19.5635 4.95857 19.4894 5.09592 19.4594 5.24544C19.4294 5.39497 19.4448 5.54996 19.5036 5.69081C19.5625 5.83166 19.6622 5.95205 19.7901 6.03675C19.918 6.12145 20.0684 6.16666 20.2222 6.16666C20.4285 6.16666 20.6263 6.08545 20.7722 5.94089C20.918 5.79633 21 5.60026 21 5.39583Z" fill="#2C4674"/>
</g>
<defs>
<clipPath id="clip0_3_222">
<rect width="28" height="24.6667" fill="white"/>
</clipPath>
</defs>
</svg>
