<svg width="24" height="28" viewBox="0 0 24 28" fill="none" xmlns="http://www.w3.org/2000/svg">
<path d="M22.5 27.8794H1.5C1.10217 27.8794 0.720644 27.7214 0.43934 27.4401C0.158036 27.1588 0 26.7772 0 26.3794V11.9149C0.0231012 11.5473 0.179344 11.2007 0.4395 10.9399L10.9395 0.43993C11.0788 0.300465 11.2442 0.189826 11.4263 0.11434C11.6084 0.0388536 11.8036 0 12.0007 0C12.1979 0 12.3931 0.0388536 12.5752 0.11434C12.7573 0.189826 12.9227 0.300465 13.062 0.43993L23.562 10.9399C23.7014 11.079 23.8119 11.2443 23.8871 11.4264C23.9623 11.6084 24.0006 11.8035 24 12.0004V26.3794C24 26.7772 23.842 27.1588 23.5607 27.4401C23.2793 27.7214 22.8978 27.8794 22.5 27.8794ZM11.067 21.0919C11.397 21.3619 11.7165 21.6259 12 21.8794C12.3 21.6139 12.636 21.3394 12.993 21.0484L13.0785 20.9779C14.8275 19.5514 17.0055 17.7769 17.0055 15.5779C17.0054 15.2188 16.9336 14.8632 16.7944 14.5322C16.6551 14.2011 16.4512 13.9011 16.1946 13.6498C15.938 13.3985 15.6339 13.2009 15.2999 13.0687C14.966 12.9364 14.6091 12.872 14.25 12.8794C13.8256 12.8783 13.4058 12.9668 13.0181 13.1392C12.6303 13.3117 12.2834 13.5641 12 13.8799C11.7167 13.564 11.3697 13.3115 10.982 13.1391C10.5942 12.9667 10.1744 12.8782 9.75 12.8794C9.39103 12.8724 9.03429 12.9371 8.70062 13.0697C8.36696 13.2022 8.06308 13.4 7.80678 13.6514C7.55047 13.9028 7.34689 14.2029 7.20793 14.5339C7.06897 14.865 6.99743 15.2204 6.9975 15.5794C6.9975 17.7709 9.1575 19.5334 10.8975 20.9494H10.896H10.9035L10.9305 20.9719H10.938L10.95 21.0004L11.028 21.0649L11.0475 21.0799H11.0565L11.067 21.0919Z" fill="#2C4674"/>
</svg>
