<svg width="24" height="28" viewBox="0 0 24 28" fill="none" xmlns="http://www.w3.org/2000/svg">
<path d="M22.5 27.8794H1.5C1.10217 27.8794 0.720644 27.7214 0.43934 27.4401C0.158036 27.1588 0 26.7772 0 26.3794V11.9149C0.0231012 11.5473 0.179344 11.2007 0.4395 10.9399L10.9395 0.43993C11.0788 0.300465 11.2442 0.189826 11.4263 0.11434C11.6084 0.0388536 11.8036 0 12.0007 0C12.1979 0 12.3931 0.0388536 12.5752 0.11434C12.7573 0.189826 12.9227 0.300465 13.062 0.43993L23.562 10.9399C23.7014 11.079 23.8119 11.2443 23.8871 11.4264C23.9623 11.6084 24.0006 11.8035 24 12.0004V26.3794C24 26.7772 23.842 27.1588 23.5607 27.4401C23.2793 27.7214 22.8978 27.8794 22.5 27.8794ZM12 3.62143L3 12.6214V24.8794H21V12.6214L12 3.62143V3.62143ZM12 21.8779C11.6598 21.5801 11.3137 21.2891 10.962 21.0049L10.8915 20.9479C9.156 19.5319 6.9915 17.7694 6.9915 15.5779C6.99161 15.2185 7.06349 14.8627 7.20291 14.5314C7.34233 14.2002 7.54649 13.9001 7.80341 13.6487C8.06034 13.3974 8.36486 13.1999 8.69913 13.0678C9.03339 12.9357 9.39066 12.8716 9.75 12.8794C10.1744 12.8783 10.5942 12.9668 10.9819 13.1392C11.3697 13.3117 11.7166 13.5641 12 13.8799C12.2835 13.5641 12.6304 13.3118 13.0181 13.1394C13.4059 12.967 13.8257 12.8784 14.25 12.8794C14.609 12.8724 14.9657 12.9371 15.2994 13.0697C15.633 13.2022 15.9369 13.4 16.1932 13.6514C16.4495 13.9028 16.6531 14.2029 16.7921 14.5339C16.931 14.865 17.0026 15.2204 17.0025 15.5794C17.0025 17.7784 14.8245 19.5529 13.0755 20.9794L12.99 21.0499C12.6345 21.3409 12.2985 21.6154 11.9985 21.8809L12 21.8779V21.8779Z" fill="white"/>
</svg>
