<svg width="24" height="24" viewBox="0 0 24 24" fill="none" xmlns="http://www.w3.org/2000/svg">
<path d="M2.7589 0.450189C2.45643 0.158055 2.05132 -0.00359337 1.63082 6.06257e-05C1.21033 0.00371462 0.80809 0.172379 0.510743 0.469726C0.213396 0.767072 0.044732 1.16931 0.041078 1.58981C0.0374241 2.0103 0.199072 2.41541 0.491207 2.71788L9.75282 11.9795L0.489603 21.2411C0.336429 21.389 0.214253 21.566 0.130202 21.7617C0.0461515 21.9573 0.00191098 22.1678 6.05526e-05 22.3807C-0.00178987 22.5937 0.0387872 22.8048 0.119425 23.0019C0.200062 23.199 0.319145 23.3781 0.469725 23.5287C0.620305 23.6793 0.799366 23.7983 0.99646 23.879C1.19355 23.9596 1.40473 24.0002 1.61768 23.9983C1.83062 23.9965 2.04106 23.9522 2.23673 23.8682C2.43239 23.7841 2.60935 23.662 2.75729 23.5088L12.0205 14.2472L21.2821 23.5088C21.5846 23.8009 21.9897 23.9626 22.4102 23.9589C22.8307 23.9553 23.2329 23.7866 23.5303 23.4893C23.8276 23.1919 23.9963 22.7897 23.9999 22.3692C24.0036 21.9487 23.8419 21.5436 23.5498 21.2411L14.2882 11.9795L23.5498 2.71788C23.8419 2.41541 24.0036 2.0103 23.9999 1.58981C23.9963 1.16931 23.8276 0.767072 23.5303 0.469726C23.2329 0.172379 22.8307 0.00371462 22.4102 6.06257e-05C21.9897 -0.00359337 21.5846 0.158055 21.2821 0.450189L12.0205 9.7118L2.7589 0.448586V0.450189Z" fill="#47608C"/>
</svg>
